<svg xmlns="http://www.w3.org/2000/svg" xmlns:xlink="http://www.w3.org/1999/xlink" width="554" height="71" viewBox="0 0 554 71">
  <defs>
    <clipPath id="clip-path">
      <rect id="Rectangle_3626" data-name="Rectangle 3626" width="554" height="71" transform="translate(465 -2)" fill="#fff"/>
    </clipPath>
  </defs>
  <g id="avis-logo-footer" transform="translate(-465 2)" clip-path="url(#clip-path)">
    <path id="path14" d="M579.879,18.054V13.3h2.714c1.57,0,3.334.448,3.334,2.273,0,2.016-1.953,2.476-3.7,2.476Zm-3,9.386h3V20.475h2.191l3.857,6.965h3.636l-4.491-7.3a4.445,4.445,0,0,0,3.853-4.5c0-3.576-3.077-4.886-6.27-4.886h-5.779Zm-6.705-8.275a12.506,12.506,0,1,1,12.452,12.512A12.481,12.481,0,0,1,570.171,19.165Zm-2.348,0A14.851,14.851,0,1,0,582.623,4.4,14.647,14.647,0,0,0,567.823,19.165ZM352.013,177.945h42.154V4.4H352.013ZM335.222,4.4H288.9l-40.2,125.413L207.787,4.4H160.728l65.684,173.548h41.917L335.222,4.4ZM186.3,177.945,115.323,4.4H73.572L0,177.945H46.367L59.092,143.88h67.191l13.473,34.064ZM114.745,110.3H71.129L93.168,50.736ZM524.953,47.7c-11.028-9.89-21.112-13.155-31.9-13.155s-24.272,3.69-24.272,17.417c0,11.5,10.306,15.4,26.736,20.576,23.527,7.6,53.916,17.418,53.916,51.976,0,39.946-32.112,57.841-66.421,57.841-24.763,0-49.774-9.062-64.959-25l25.7-26.374C454,142.006,469.282,147.8,483.018,147.8c12.734,0,24.017-4.922,24.017-18.877,0-13.238-13.249-17.665-36.037-25.048-22.041-7.1-44.353-18.1-44.353-49.459C426.645,15.93,461.446,0,493.786,0c19.621,0,41.681,7.364,56.875,21.309L524.953,47.7" transform="translate(421.238)" fill="#d4002a" opacity="0.03"/>
  </g>
</svg>
