<svg xmlns="http://www.w3.org/2000/svg" width="19.399" height="17.05"
                                                viewBox="0 0 19.399 17.05">
                                                <path
                                                    d="M18.834,2.273H13.678V1.705A1.707,1.707,0,0,0,11.973,0H7.426A1.707,1.707,0,0,0,5.721,1.705v.568H.568A.57.57,0,0,0,0,2.842v12.5A1.707,1.707,0,0,0,1.705,17.05H17.694A1.707,1.707,0,0,0,19.4,15.345V2.851A.552.552,0,0,0,18.834,2.273ZM6.858,1.705a.569.569,0,0,1,.568-.568h4.547a.569.569,0,0,1,.568.568v.568H6.858ZM18.042,3.41,16.277,8.7a.567.567,0,0,1-.539.389h-3.2V8.525a.568.568,0,0,0-.568-.568H7.426a.568.568,0,0,0-.568.568v.568h-3.2A.567.567,0,0,1,3.122,8.7L1.357,3.41ZM11.4,9.093V10.23H7.995V9.093Zm6.858,6.252a.569.569,0,0,1-.568.568H1.705a.569.569,0,0,1-.568-.568v-9l.907,2.72A1.7,1.7,0,0,0,3.661,10.23h3.2V10.8a.568.568,0,0,0,.568.568h4.547a.568.568,0,0,0,.568-.568V10.23h3.2a1.7,1.7,0,0,0,1.617-1.166l.907-2.72Zm0,0"
                                                    fill="#000000"></path>
                                            </svg>